<svg width="200" height="46" viewBox="0 0 200 46" fill="none" xmlns="http://www.w3.org/2000/svg">
<path d="M63.7223 39.7289C64.367 39.154 64.831 38.4769 65.1153 37.7013C65.3977 36.9239 65.5399 36.2257 65.5399 35.6047C65.5399 35.0775 65.4958 34.5688 65.3033 34.0425C63.8553 30.0921 56.2432 11.7422 56.2432 11.7422H61.5288C61.5288 11.7422 67.5674 26.8538 67.7114 27.2144C67.8553 27.576 68.0873 27.9136 68.4165 27.9136C68.7457 27.9136 68.9677 27.6799 69.1272 27.2144L75.0722 11.7422H80.3102L69.2666 39.0537C68.511 41.0114 67.5279 42.4475 66.3175 43.3647C65.1052 44.281 63.6031 44.7382 61.8113 44.7382H58.6971V40.591H61.2932C62.2689 40.591 63.0777 40.303 63.7223 39.7299V39.7289Z" fill="#F54B1E"/>
<path d="M83.1452 33.7385C81.5881 32.4956 80.8096 30.8488 80.8096 28.7991C80.8096 26.7503 81.611 25.0309 83.2167 23.7429C84.8206 22.4549 86.96 21.6389 89.6349 21.2957L96.2879 20.5496C96.728 20.4871 97.0508 20.3564 97.2562 20.154C97.4616 19.9516 97.5625 19.6959 97.5625 19.3859C97.5625 18.5468 97.3745 17.8403 96.9949 17.2653C96.618 16.6903 96.0898 16.2395 95.413 15.9129C94.7372 15.5863 93.9568 15.4235 93.0774 15.4235H90.8124C89.491 15.4235 88.3905 15.7667 87.5084 16.4493C86.6271 17.1337 86.1558 18.097 86.0934 19.3389H80.9499C81.0443 17.7244 81.5468 16.3104 82.4593 15.0987C83.3717 13.8871 84.5675 12.9625 86.0457 12.325C87.524 11.6884 89.1296 11.3691 90.8591 11.3691H93.0765C94.9004 11.3691 96.5226 11.727 97.9376 12.44C99.3525 13.1548 100.479 14.1567 101.311 15.4465C102.145 16.7363 102.562 18.2359 102.562 19.9443L102.551 35.2307H98.4511L98.4548 33.3475C98.4548 33.169 98.4108 32.9878 98.3035 32.8443C98.1852 32.6851 98.0302 32.5959 97.8413 32.5738C97.5588 32.5425 97.259 32.6833 96.9454 32.9933C96.1586 33.7394 95.1049 34.3595 93.7844 34.8581C92.4639 35.354 91.0315 35.6042 89.4909 35.6042C86.816 35.6042 84.7005 34.9841 83.1443 33.7394V33.7385H83.1452ZM93.9513 30.9427C95.0673 30.4772 95.9412 29.7936 96.5712 28.892C97.1994 27.9904 97.5158 26.8883 97.5158 25.5838V25.3501C97.5158 24.9775 97.3975 24.6896 97.1609 24.489C96.9243 24.2866 96.5712 24.2167 96.098 24.2792L90.4355 25.0253C89.0205 25.2112 87.9027 25.5856 87.0838 26.144C86.2649 26.7025 85.8568 27.5102 85.8568 28.5673C85.8568 29.5618 86.2264 30.3226 86.9655 30.8516C87.7046 31.3806 88.7812 31.6437 90.1989 31.6437C91.6157 31.6437 92.8335 31.41 93.9513 30.9445V30.9427Z" fill="#F54B1E"/>
<path d="M180.583 33.7385C179.025 32.4956 178.247 30.8488 178.247 28.7991C178.247 26.7503 179.049 25.0309 180.654 23.7429C182.258 22.4549 184.397 21.6389 187.073 21.2957L193.726 20.5496C194.165 20.4871 194.488 20.3564 194.694 20.154C194.899 19.9516 195.001 19.6959 195.001 19.3859C195.001 18.5468 194.813 17.8403 194.434 17.2653C194.055 16.6903 193.529 16.2395 192.853 15.9129C192.176 15.5863 191.396 15.4235 190.517 15.4235H188.252C186.93 15.4235 185.829 15.7667 184.948 16.4493C184.066 17.1337 183.594 18.097 183.532 19.3389H178.388C178.483 17.7244 178.985 16.3104 179.898 15.0987C180.81 13.8871 182.006 12.9625 183.485 12.325C184.962 11.6884 186.569 11.3691 188.297 11.3691H190.514C192.338 11.3691 193.959 11.727 195.374 12.44C196.79 13.1548 197.915 14.1567 198.748 15.4465C199.581 16.7363 200 18.2359 200 19.9443L199.989 35.2307H195.889L195.892 33.3475C195.892 33.169 195.847 32.9878 195.742 32.8443C195.624 32.6851 195.467 32.5959 195.279 32.5738C194.996 32.5425 194.697 32.6833 194.383 32.9933C193.596 33.7394 192.543 34.3595 191.222 34.8581C189.9 35.354 188.47 35.6042 186.928 35.6042C184.253 35.6042 182.137 34.9841 180.581 33.7394V33.7385H180.583ZM191.389 30.9427C192.505 30.4772 193.379 29.7936 194.01 28.892C194.639 27.9904 194.952 26.8883 194.952 25.5838V25.3501C194.952 24.9775 194.836 24.6896 194.598 24.489C194.361 24.2866 194.009 24.2167 193.536 24.2792L187.874 25.0253C186.458 25.2112 185.34 25.5856 184.521 26.144C183.702 26.7025 183.294 27.5102 183.294 28.5673C183.294 29.5618 183.665 30.3226 184.403 30.8516C185.143 31.3806 186.22 31.6437 187.637 31.6437C189.055 31.6437 190.271 31.41 191.389 30.9445V30.9427Z" fill="#F54B1E"/>
<path d="M111.259 11.7428V13.0473C111.259 13.545 111.423 13.8633 111.754 14.0032C112.084 14.1439 112.517 13.9958 113.051 13.5597C113.741 12.9065 114.56 12.3794 115.504 11.9764C116.448 11.5735 117.439 11.3711 118.477 11.3711H120.694C122.204 11.3711 123.604 11.7593 124.894 12.5367C126.184 13.3141 127.198 14.385 127.937 15.752C128.676 17.1201 129.046 18.6426 129.046 20.3188V35.2308H124.091V21.2029C124.091 20.1781 123.893 19.2544 123.501 18.4301C123.108 17.6076 122.549 16.9545 121.826 16.4724C121.101 15.9903 120.285 15.7502 119.372 15.7502H117.343C116.18 15.7502 115.133 16.0602 114.205 16.6821C113.277 17.3041 112.553 18.1514 112.034 19.2222C111.515 20.2949 111.256 21.4357 111.256 22.6473V35.2299H106.301V11.7428H111.259Z" fill="#F54B1E"/>
<path d="M137.852 34.0431C136.121 33.0026 134.761 31.5582 133.771 29.71C132.78 27.8618 132.283 25.7872 132.283 23.4882C132.283 21.1891 132.778 19.1146 133.771 17.2663C134.761 15.4181 136.123 13.9728 137.852 12.9332C139.582 11.8936 141.501 11.3711 143.609 11.3711H145.543C147.651 11.3711 149.569 11.8909 151.3 12.9332C153.03 13.9746 154.392 15.4181 155.382 17.2663C156.372 19.1146 156.869 21.1891 156.869 23.4882C156.869 25.7872 156.381 27.8618 155.406 29.71C154.43 31.5582 153.07 33.0035 151.324 34.0431C149.578 35.0845 147.651 35.6043 145.543 35.6043H143.609C141.501 35.6052 139.582 35.0855 137.852 34.0431ZM148.683 30.3393C149.642 29.6566 150.398 28.7155 150.948 27.5205C151.498 26.3254 151.774 24.9804 151.774 23.49C151.774 21.9996 151.499 20.6638 150.948 19.4817C150.398 18.3013 149.642 17.3611 148.683 16.6628C147.722 15.9636 146.662 15.614 145.498 15.614H143.658C142.494 15.614 141.431 15.9572 140.472 16.6398C139.511 17.3243 138.757 18.2562 138.207 19.4366C137.657 20.6169 137.381 21.9693 137.381 23.4909C137.381 25.0126 137.656 26.365 138.207 27.5453C138.757 28.7256 139.511 29.6585 140.472 30.342C141.431 31.0265 142.493 31.3678 143.658 31.3678H145.498C146.662 31.3678 147.723 31.0265 148.683 30.342V30.3393Z" fill="#F54B1E"/>
<path d="M160.32 2.60742H165.276V35.229H160.32V2.60742Z" fill="#F54B1E"/>
<path d="M174.808 11.7438V38.1215C174.808 40.2963 174.289 41.9422 173.25 43.0627C172.212 44.1814 170.734 44.7398 168.814 44.7398H164.521V40.5925H167.305C168.186 40.5925 168.821 40.3441 169.215 39.8464C169.608 39.3487 169.804 38.5879 169.804 37.5621V11.7438H174.808ZM175.042 2.60742V7.5008H169.568V2.60742H175.042Z" fill="#F54B1E"/>
<path d="M37.5524 9.33936C39.2012 9.88399 40.7482 10.5068 42.1723 11.2023C42.518 11.3707 42.6327 11.0984 42.5556 10.8647C42.0384 9.2952 41.4277 7.79195 40.7326 6.37058C40.1897 5.25925 39.2947 4.36134 38.187 3.81671C36.7693 3.11937 35.2718 2.50666 33.7074 1.98779C33.4744 1.91051 33.1947 2.00619 33.3708 2.37234C34.0586 3.80384 34.6849 5.35308 35.2278 7.00721C35.59 8.11119 36.452 8.97597 37.5524 9.33936Z" fill="#F54B1E"/>
<path d="M25.0142 37.0854C23.3086 37.1792 22.9078 36.2077 22.9372 35.0531C22.995 32.721 23.0362 30.2508 23.0573 27.6822C23.0674 26.4421 23.625 25.4439 25.3031 25.4292C28.0697 25.4062 30.7208 25.3602 33.2087 25.294C34.056 25.2719 34.7557 25.6693 34.7034 26.8267C34.6181 28.72 34.4549 30.5618 34.2275 32.3392C34.0954 33.3687 34.5567 34.1037 35.8258 33.8526C38.0221 33.4183 40.4155 32.7762 42.2312 32.1423C43.184 31.8102 43.8754 30.9785 44.0331 29.9794C44.3632 27.8856 44.5366 25.7116 44.5356 23.4899C44.5356 22.5046 44.0203 22.1587 43.3169 22.1136C41.8616 22.0207 40.2614 21.9379 38.5393 21.8652C37.5131 21.822 36.7126 21.4448 36.6337 19.9737C36.4677 16.8927 36.0679 13.9478 35.4838 11.2035C35.2582 10.1419 34.4375 9.31297 33.3811 9.0839C30.7621 8.51443 27.669 8.09492 24.7565 7.93668C23.657 7.87688 22.8006 7.28717 22.7373 5.88328C22.6612 4.20616 22.5832 2.64587 22.4952 1.22358C22.4567 0.603508 21.9844 0 21.1233 0C17.8606 0 14.7162 0.377192 11.7597 1.07638C10.6198 1.34593 9.6799 2.14448 9.22231 3.22638C8.57674 4.75078 8.00268 6.40123 7.51116 8.15656C7.28374 8.96798 6.65375 9.60277 5.84495 9.83092C4.72619 10.1465 3.65053 10.4951 2.62256 10.8751C1.79633 11.1805 1.17551 11.8788 0.960926 12.7353C0.565692 14.3149 0.26216 15.8053 0.00998105 17.878C-0.0872225 18.6793 0.54185 19.0721 1.18743 18.9709C2.64915 18.7428 4.06227 18.5579 5.73307 18.3794C6.83807 18.2616 7.71658 17.3886 7.83029 16.28C7.95133 15.1024 8.10172 13.9506 8.27962 12.8291C8.46119 11.6838 9.35345 10.7859 10.496 10.6046C12.5777 10.2734 14.7611 10.0315 17.0215 9.90636C18.8537 9.80516 19.3361 10.8613 19.3049 12.1281C19.249 14.4134 19.2104 16.8292 19.1894 19.338C19.1793 20.5551 18.652 21.5359 16.9848 21.5497C13.7652 21.5763 10.6996 21.6334 7.86788 21.7171C6.55105 21.7557 5.49556 22.3178 5.51574 24.1661C5.55242 27.5709 5.86971 30.8111 6.36306 33.6925C6.52171 34.6198 6.2576 35.5472 4.76745 35.1626C3.76883 34.8921 2.80504 34.5977 1.87427 34.2794C1.19752 34.0476 1.03245 34.5269 1.15075 34.9648C1.73489 37.1286 2.47767 39.1737 3.36075 41.0707C3.73306 41.8711 4.38873 42.5068 5.19845 42.8546C6.61891 43.4655 8.11181 43.9917 9.66707 44.436C10.7189 44.7369 10.8088 44.0322 10.5969 43.4452C10.1494 42.206 9.73859 40.8867 9.38188 39.4967C9.19572 38.7717 9.33327 37.9952 10.5575 38.2271C12.7739 38.6475 15.7295 38.9612 17.7359 39.0578C18.7749 39.1075 19.4443 39.4405 19.4938 40.7257C19.5479 42.1122 19.6148 43.4204 19.6845 44.6412C19.7276 45.4002 20.0275 46 21.1233 46C23.5149 46 25.8414 45.8059 28.078 45.4388C29.0106 45.2861 29.7763 44.6145 30.0624 43.7102C30.6099 41.9815 31.0876 40.0919 31.4856 38.0716C31.6488 37.2445 31.4691 36.4359 30.1211 36.6134C28.4723 36.8305 26.7199 36.9906 25.0142 37.0854Z" fill="#F54B1E"/>
</svg>
